HIERARCHY
ROOT Hips
{
	OFFSET 0.000000 0.000000 0.000000
	CHANNELS 6 Xposition Yposition Zposition Xrotation Yrotation Zrotation
	JOINT LeftUpLeg_virtual
	{
		OFFSET 0.000000 0.000000 0.000000
		CHANNELS 3 Xrotation Yrotation Zrotation
		JOINT LeftUpLeg
		{
			OFFSET 10.205400 -3.823500 0.155100
			CHANNELS 3 Xrotation Yrotation Zrotation
			JOINT LeftLeg
			{
				OFFSET 0.708757 -12.982077 0.567790
				CHANNELS 3 Xrotation Yrotation Zrotation
				JOINT LeftFoot
				{
					OFFSET -0.708756 -10.717838 -2.184338
					CHANNELS 3 Xrotation Yrotation Zrotation
					JOINT LeftToeBase
					{
						OFFSET 0.108149 -7.191104 7.560241
						CHANNELS 3 Xrotation Yrotation Zrotation
						JOINT LeftToe_End
						{
							OFFSET 0.070230 0.081724 4.490308
							CHANNELS 3 Xrotation Yrotation Zrotation
							End Site
							{
								OFFSET 0 0 0
							}
						}
					}
				}
			}
		}
	}
	JOINT RightUpLeg_virtual
	{
		OFFSET 0.000000 0.000000 0.000000
		CHANNELS 3 Xrotation Yrotation Zrotation
		JOINT RightUpLeg
		{
			OFFSET -10.205400 -3.823500 0.005500
			CHANNELS 3 Xrotation Yrotation Zrotation
			JOINT RightLeg
			{
				OFFSET -0.708756 -12.982134 0.610632
				CHANNELS 3 Xrotation Yrotation Zrotation
				JOINT RightFoot
				{
					OFFSET 0.708754 -10.717769 -1.945823
					CHANNELS 3 Xrotation Yrotation Zrotation
					JOINT RightToeBase
					{
						OFFSET -0.108140 -7.191069 7.372968
						CHANNELS 3 Xrotation Yrotation Zrotation
						JOINT RightToe_End
						{
							OFFSET -0.070227 0.081735 4.479403
							CHANNELS 3 Xrotation Yrotation Zrotation
							End Site
							{
								OFFSET 0 0 0
							}
						}
					}
				}
			}
		}
	}
	JOINT Spine_virtual
	{
		OFFSET 0.000000 0.000000 0.000000
		CHANNELS 3 Xrotation Yrotation Zrotation
		JOINT Spine
		{
			OFFSET 0.000000 6.876099 0.125700
			CHANNELS 3 Xrotation Yrotation Zrotation
			JOINT Spine1
			{
				OFFSET 0.000000 5.730043 0.104720
				CHANNELS 3 Xrotation Yrotation Zrotation
				JOINT Spine1_split
				{
					OFFSET 0.000000 5.730043 0.104720
					CHANNELS 3 Xrotation Yrotation Zrotation
					JOINT Spine2
					{
						OFFSET 0.000000 5.730043 0.104720
						CHANNELS 3 Xrotation Yrotation Zrotation
						JOINT Neck_virtual
						{
							OFFSET 0.000000 0.000000 0.000000
							CHANNELS 3 Xrotation Yrotation Zrotation
							JOINT Neck
							{
								OFFSET 0.000000 10.314075 0.188496
								CHANNELS 3 Xrotation Yrotation Zrotation
								JOINT Head
								{
									OFFSET 0.000000 7.643700 -2.377400
									CHANNELS 3 Xrotation Yrotation Zrotation
									JOINT HeadTop_End
									{
										OFFSET 0.000000 43.788605 -13.619600
										CHANNELS 3 Xrotation Yrotation Zrotation
										End Site
										{
											OFFSET 0 0 0
										}
									}
								}
							}
						}
						JOINT LeftShoulder_virtual
						{
							OFFSET 0.000000 0.000000 0.000000
							CHANNELS 3 Xrotation Yrotation Zrotation
							JOINT LeftShoulder
							{
								OFFSET 2.196100 4.412489 0.087492
								CHANNELS 3 Xrotation Yrotation Zrotation
								JOINT LeftShoulder_split
								{
									OFFSET 2.196100 4.412489 0.087492
									CHANNELS 3 Xrotation Yrotation Zrotation
									JOINT LeftArm
									{
										OFFSET 8.771219 -2.981674 -0.026999
										CHANNELS 3 Xrotation Yrotation Zrotation
										JOINT LeftForeArm
										{
											OFFSET 8.512804 0.000000 -0.000000
											CHANNELS 3 Xrotation Yrotation Zrotation
											JOINT LeftHand
											{
												OFFSET 18.484802 0.000000 -0.000000
												CHANNELS 3 Xrotation Yrotation Zrotation
												End Site
												{
													OFFSET 0 0 0
												}
											}
										}
									}
								}
							}
						}
						JOINT RightShoulder_virtual
						{
							OFFSET 0.000000 0.000000 0.000000
							CHANNELS 3 Xrotation Yrotation Zrotation
							JOINT RightShoulder
							{
								OFFSET -2.196100 4.412496 0.070690
								CHANNELS 3 Xrotation Yrotation Zrotation
								JOINT RightShoulder_split
								{
									OFFSET -2.196100 4.412496 0.070690
									CHANNELS 3 Xrotation Yrotation Zrotation
									JOINT RightArm
									{
										OFFSET -8.771282 -2.981682 -0.094208
										CHANNELS 3 Xrotation Yrotation Zrotation
										JOINT RightForeArm
										{
											OFFSET -8.494598 0.000000 0.000000
											CHANNELS 3 Xrotation Yrotation Zrotation
											JOINT RightHand
											{
												OFFSET -18.483803 0.000000 0.000001
												CHANNELS 3 Xrotation Yrotation Zrotation
												End Site
												{
													OFFSET 0 0 0
												}
											}
										}
									}
								}
							}
						}
					}
				}
			}
		}
	}
}
MOTION
Frames: 8
Frame Time: 0.03333333
21.357199 26.613255 93.440788 0.000000 0.000000 0.000000 -3.067777 17.223068 -14.181885 -12.076657 6.384477 -4.409930 80.239942 0.991243 0.214126 15.337461 5.790127 24.769638 5.735338 -0.032643 1.629865 0.000000 0.000000 0.000000 0.348453 19.334828 -14.964842 -41.730509 15.701562 5.209500 42.934716 5.686320 1.091304 -2.758596 2.373105 13.096193 -8.070376 -2.800990 -1.000189 0.000000 0.000000 0.000000 -1.445440 23.157106 -13.575895 2.640818 -9.948445 -2.189957 3.384715 -2.690173 1.234653 -0.133525 0.205118 0.081032 0.000000 0.000000 0.000000 2.397791 -4.120454 2.290797 -1.773354 2.990662 1.096409 -9.957881 33.871403 4.502628 0.000000 0.000000 0.000000 1.672395 -3.174668 1.736713 -0.553269 -0.255802 -9.377786 2.094928 3.975164 0.070125 17.503063 -13.589728 -45.912439 39.294768 -86.086939 35.001250 0.000000 0.000000 0.000000 2.757711 -3.758432 1.769237 0.684187 -4.257756 7.867539 2.774085 8.650910 -1.178741 37.176218 11.268392 50.457999 -179.842979 84.377575 177.311725 0.000000 0.000000 0.000000 
23.304049 25.623230 98.198196 0.000000 0.000000 0.000000 -4.943199 16.502215 -14.509677 -31.011306 8.448980 -2.626523 94.777392 2.559366 1.217918 9.299581 2.839029 27.836334 0.421511 -0.236457 2.179469 0.000000 0.000000 0.000000 -0.221044 21.757228 -16.026139 -32.947839 12.814081 6.346968 55.610348 3.887008 3.057827 -25.711077 0.744234 4.647785 -7.204044 -2.929991 0.151642 0.000000 0.000000 0.000000 -4.735712 24.293045 -13.578355 5.364439 -6.860566 -1.643161 3.886253 -1.057350 1.437851 -0.398782 0.779760 0.089765 0.000000 0.000000 0.000000 2.916627 -2.554145 2.522419 -3.010909 2.754170 1.076517 -9.894723 31.458434 4.443704 0.000000 0.000000 0.000000 2.575200 -1.493915 1.604818 -0.347154 0.289685 -9.800581 1.095267 2.314386 -1.845430 27.967448 -15.973780 -50.644108 13.920085 -72.132952 9.541766 0.000000 0.000000 0.000000 3.590979 -1.967354 1.812393 0.220833 -2.790374 10.478486 2.749036 7.603064 0.102227 23.424426 17.958068 51.627689 -150.606819 88.930641 147.584856 0.000000 0.000000 0.000000 
24.794603 24.961590 102.029099 0.000000 0.000000 0.000000 -5.965164 17.167047 -14.734781 -49.525008 9.679551 -0.660817 104.658982 4.496580 1.455221 2.591106 0.287499 30.856250 -3.622366 -0.177335 0.901335 0.000000 0.000000 0.000000 -0.952941 24.857801 -16.429971 -27.344628 10.303719 6.215333 67.677223 4.475423 4.656107 -41.515488 2.332358 0.238827 -7.196318 -2.955580 0.990917 0.000000 0.000000 0.000000 -7.659625 25.434040 -13.493445 7.596056 -3.742966 -1.010851 4.484245 0.378746 1.511401 0.050876 1.274194 0.164586 0.000000 0.000000 0.000000 3.631536 -0.992717 2.556834 -3.437008 2.550320 1.082329 -9.697505 28.910418 4.583217 0.000000 0.000000 0.000000 3.433954 0.077394 1.579089 -0.181067 0.940289 -8.968026 -0.241988 0.788782 -2.882750 34.812200 -17.993319 -54.485430 10.408013 -62.602126 6.934937 0.000000 0.000000 0.000000 4.458587 -0.349414 1.705886 -0.238280 -2.152611 12.051831 3.101980 5.967848 0.453177 8.855860 22.024020 54.310782 -124.751424 89.055599 121.995238 0.000000 0.000000 0.000000 
25.863737 24.596043 104.668556 0.000000 0.000000 0.000000 -5.556584 18.154627 -15.128772 -63.491021 8.653947 0.944789 109.386586 5.713189 1.119797 0.203809 0.208334 31.677772 -2.399576 0.373721 -2.267562 0.000000 0.000000 0.000000 -1.676432 27.674434 -16.542494 -24.044754 8.479452 4.486497 74.595296 7.477639 4.995397 -48.351145 4.214602 1.334426 -8.861316 -3.025440 1.199136 0.000000 0.000000 0.000000 -9.110892 26.257324 -13.804934 8.904834 -1.078826 -0.268004 5.060544 1.357784 1.451614 0.514738 1.798223 0.222139 0.000000 0.000000 0.000000 4.438861 0.258132 2.411654 -3.182047 2.303799 1.255167 -9.665091 26.848285 4.838241 0.000000 0.000000 0.000000 4.070550 1.319394 1.642101 -0.093963 1.473180 -7.474389 -1.325794 -0.494415 -2.262056 38.275198 -18.211292 -57.427261 7.714015 -59.902371 5.839359 0.000000 0.000000 0.000000 5.125502 0.807648 1.502370 -0.468161 -2.143920 12.362265 3.580389 4.321035 0.330877 -2.302107 23.168318 56.605138 -161.379939 87.420561 159.551511 0.000000 0.000000 0.000000 
26.628746 24.432716 106.410759 0.000000 0.000000 0.000000 -4.038943 19.465706 -15.888673 -71.443266 6.621987 2.608749 109.512514 6.171260 0.214486 1.689129 2.480352 31.590957 0.990305 0.841725 -4.799095 0.000000 0.000000 0.000000 -1.604362 29.047097 -16.933770 -21.802674 7.127894 1.906006 76.334529 11.040687 4.394212 -49.458035 5.265516 4.788806 -8.972296 -3.170011 0.743875 0.000000 0.000000 0.000000 -8.998270 26.350086 -14.498185 9.106090 0.848209 0.706059 5.511350 1.788390 1.335197 0.720851 1.659904 0.253798 0.000000 0.000000 0.000000 5.161061 0.992245 2.216733 -2.655298 2.082971 1.611264 -10.169843 25.734169 5.176869 0.000000 0.000000 0.000000 4.458235 1.975784 1.705253 -0.075609 1.739892 -5.932812 -1.748411 -1.159371 -1.352985 39.033397 -17.238882 -59.410324 4.609120 -62.235331 4.376883 0.000000 0.000000 0.000000 5.558551 1.399278 1.285941 -0.399227 -2.334079 11.759850 4.264620 3.517122 -0.149946 -8.007681 21.995748 57.740568 -169.400767 85.845458 168.705235 0.000000 0.000000 0.000000 
27.189754 24.294106 106.945107 0.000000 0.000000 0.000000 -2.187920 20.131499 -16.999538 -73.217353 4.749657 4.113407 106.959786 6.430867 -1.032114 5.147137 5.672479 31.353205 2.982303 1.115877 -5.511017 0.000000 0.000000 0.000000 -1.031281 28.588851 -17.794152 -20.168283 5.972469 -0.444117 75.133720 13.971984 3.924044 -48.720696 5.592262 7.562724 -5.516260 -3.200391 -0.184420 0.000000 0.000000 0.000000 -7.811739 25.501730 -15.485026 8.642837 2.080860 1.843881 5.813305 1.738866 1.204011 1.518218 1.441150 0.364629 0.000000 0.000000 0.000000 5.560956 1.150505 2.042545 -2.115369 1.837723 2.181774 -11.318995 25.549222 5.532514 0.000000 0.000000 0.000000 4.700678 2.009883 1.665686 -0.054080 1.626588 -5.128647 -2.427059 -1.077364 -0.753505 38.826221 -15.773991 -60.761055 0.156641 -66.035498 1.292524 0.000000 0.000000 0.000000 5.785148 1.455249 1.130949 -0.089162 -2.356273 10.657428 4.561408 3.321278 -0.479456 -8.978446 19.835668 57.911357 -170.428410 85.780168 170.707492 0.000000 0.000000 0.000000 
27.618391 24.052691 106.913589 0.000000 0.000000 0.000000 -0.833321 20.623013 -18.333500 -71.633986 3.269357 5.494226 104.156922 5.818653 -1.803941 9.893695 7.843653 29.417297 3.521656 1.351745 -5.468559 0.000000 0.000000 0.000000 -0.687947 27.406933 -18.921250 -19.129569 4.643810 -2.161451 74.180499 15.945833 3.776271 -47.770579 5.423352 8.707435 -0.737794 -3.043824 -1.568193 0.000000 0.000000 0.000000 -6.093162 24.381788 -16.412791 7.811687 2.678946 2.958003 6.040988 1.388876 1.102791 1.809805 1.303618 0.346450 0.000000 0.000000 0.000000 5.587290 0.846156 1.936492 -1.725261 1.585709 2.800905 -12.805290 26.181070 5.730513 0.000000 0.000000 0.000000 4.946226 1.580153 1.513710 -0.052600 1.144468 -5.207951 -3.232347 -0.127592 -1.045566 38.823482 -14.557742 -61.512547 -4.255975 -68.366533 -2.389567 0.000000 0.000000 0.000000 5.874541 1.170355 1.092154 0.333866 -1.990718 9.590489 3.868159 3.581250 -0.329700 -7.138343 18.032220 57.441310 -166.248799 87.065815 166.963592 0.000000 0.000000 0.000000 
27.905060 23.847216 106.681129 0.000000 0.000000 0.000000 -0.517727 20.872740 -19.373225 -69.483999 2.205928 6.694071 102.683035 3.994611 -1.358146 15.451601 7.381296 25.389136 1.743956 1.489960 -4.630551 0.000000 0.000000 0.000000 -1.140995 25.744458 -19.623516 -19.254015 3.084612 -2.434893 74.963525 16.870506 3.299353 -46.493948 4.487504 9.113468 2.122489 -2.696929 -3.095354 0.000000 0.000000 0.000000 -4.506285 23.244992 -17.063305 6.909941 2.813582 3.848462 6.157623 0.985717 1.063901 1.785381 0.921957 0.074548 0.000000 0.000000 0.000000 5.374412 0.342750 1.903093 -1.461881 1.311010 3.207638 -14.214806 26.984718 5.720893 0.000000 0.000000 0.000000 5.204693 0.975189 1.370155 -0.051415 0.573755 -5.725690 -4.196674 1.281364 -2.425176 39.170804 -14.516092 -61.769383 -6.115986 -68.703111 -4.074963 0.000000 0.000000 0.000000 5.941452 0.777550 1.146359 0.662836 -1.227662 9.007839 2.620175 3.709071 0.122792 -4.653934 17.082264 56.633449 -159.553479 88.180809 160.159631 0.000000 0.000000 0.000000 
